<svg width="100" height="100" viewBox="0 0 100 100" fill="none" xmlns="http://www.w3.org/2000/svg">
    <rect width="100" height="100" fill="#111827"/>
    <path d="M24.3182 67H14.0909L25.6136 32.0909H38.5682L50.0909 67H39.8636L32.2273 41.7045H31.9545L24.3182 67ZM22.4091 53.2273H41.6364V60.3182H22.4091V53.2273ZM66.8849 67H53.4531V32.0909H66.7486C70.3395 32.0909 73.4418 32.7898 76.0554 34.1875C78.6804 35.5739 80.7031 37.5739 82.1236 40.1875C83.5554 42.7898 84.2713 45.9091 84.2713 49.5455C84.2713 53.1818 83.5611 56.3068 82.1406 58.9205C80.7202 61.5227 78.7088 63.5227 76.1065 64.9205C73.5043 66.3068 70.4304 67 66.8849 67ZM62.9304 58.9545H66.544C68.2713 58.9545 69.7429 58.6761 70.9588 58.1193C72.1861 57.5625 73.1179 56.6023 73.7543 55.2386C74.402 53.875 74.7259 51.9773 74.7259 49.5455C74.7259 47.1136 74.3963 45.2159 73.7372 43.8523C73.0895 42.4886 72.1349 41.5284 70.8736 40.9716C69.6236 40.4148 68.0895 40.1364 66.2713 40.1364H62.9304V58.9545Z" fill="white"/>
</svg>
