<svg width="512" height="512" viewBox="0 0 512 512" fill="none" xmlns="http://www.w3.org/2000/svg">
    <path d="M338 424.7C312.3 420 284.5 411.2 256 398.8C227.4 411.3 199.7 420.1 174 424.7C174.8 426.5 175.6 428.3 176.5 430.1C197.3 474 225 496 256 496C287 496 314.7 474 335.5 430.2C336.3 428.4 337.2 426.6 338 424.8V424.7ZM256 512C213.2 512 179.6 479.3 157.6 427.2C104.9 433.3 62.6 420.4 42.4 384C21.7 346.9 33 301.2 66 256C33 210.8 21.7 165.1 42.4 128C62.6 91.7 104.9 78.7 157.6 84.8C179.6 32.7 213.2 0 256 0C298.8 0 332.4 32.7 354.4 84.8C407.1 78.7 449.4 91.6 469.6 128C490.3 165.1 479 210.8 446 256C479 301.2 490.3 346.9 469.6 384C449.4 420.3 407.1 433.3 354.4 427.2C332.4 479.3 298.8 512 256 512ZM236.3 389.7C222.4 382.9 208.4 375.3 194.3 366.9C178.6 357.5 163.7 347.6 149.8 337.4C153.8 364 159.9 388.4 167.8 409.7C189.1 406.1 212.2 399.4 236.3 389.8V389.7ZM344.2 409.6C352 388.4 358.1 364 362.2 337.3C348.3 347.6 333.4 357.5 317.7 366.8C303.7 375.2 289.6 382.8 275.7 389.6C299.8 399.2 322.9 405.9 344.2 409.5V409.6ZM309.5 353.2C329.6 341.2 348.2 328.4 365.1 315.1C367.1 296.3 368.1 276.5 368.1 256.1C368.1 235.7 367.1 215.9 365.1 197.1C348.2 183.8 329.6 171 309.5 159C291.5 148.2 273.6 138.8 256.1 130.8C238.6 138.8 220.7 148.2 202.7 159C182.6 171 164 183.8 147.1 197.1C145.1 215.9 144.1 235.7 144.1 256.1C144.1 276.5 145.1 296.3 147.1 315.1C164 328.4 182.6 341.2 202.7 353.2C220.7 364 238.6 373.4 256.1 381.4C273.6 373.4 291.5 364 309.5 353.2ZM360.5 411.8C361.4 411.9 362.3 412 363.2 412C409.5 415.9 440.8 403 455.7 376.2C470.8 349.1 465.6 313.9 439.1 273.9C438 272.3 437 270.7 435.8 269.1C420.5 287.6 401.8 305.9 380.2 323.3C376.4 355.8 369.7 385.7 360.5 411.6V411.8ZM382.4 300.7C399.2 286 413.8 271 425.8 256C413.8 241 399.1 226 382.3 211.3C383.4 225.8 384 240.7 384 256C384 271.3 383.4 286.2 382.3 300.7H382.4ZM439 238C465.6 198 470.7 162.8 455.6 135.7C440.7 109 409.3 96.2 363.1 100C362.2 100.1 361.3 100.2 360.4 100.2C369.6 126.2 376.3 156.1 380.1 188.5C401.7 206 420.4 224.2 435.7 242.7C436.8 241.1 437.9 239.5 439 237.9V238ZM335.5 81.8C314.7 38 287 16 256 16C225 16 197.3 38 176.5 81.8C175.7 83.6 174.8 85.4 174 87.2C199.7 91.9 227.5 100.7 256 113.1C284.6 100.6 312.3 91.8 338 87.2C337.2 85.4 336.4 83.6 335.5 81.8ZM344.1 102.4C322.8 106 299.7 112.7 275.6 122.3C289.5 129.1 303.5 136.7 317.6 145.1C333.3 154.5 348.2 164.4 362.1 174.6C358.1 148 352 123.6 344.1 102.3V102.4ZM167.7 102.4C159.9 123.6 153.8 148 149.7 174.7C163.6 164.4 178.5 154.6 194.2 145.2C208.2 136.8 222.3 129.2 236.2 122.4C212.1 112.8 189 106.1 167.7 102.5V102.4ZM151.5 100.2C150.6 100.1 149.7 100 148.8 100C102.5 96.1 71.2 109 56.3 135.7C41.3 162.8 46.5 198.1 73 238C74.1 239.6 75.1 241.2 76.3 242.8C91.6 224.3 110.3 206 131.9 188.6C135.7 156.1 142.4 126.2 151.6 100.3L151.5 100.2ZM131.8 323.4C110.2 305.9 91.5 287.7 76.2 269.2C75.1 270.8 74 272.4 72.9 274C46.3 314 41.2 349.2 56.3 376.3C71.2 403.1 102.6 415.9 148.8 412.1C149.7 412 150.6 411.9 151.5 411.9C142.3 385.9 135.6 356 131.8 323.6V323.4ZM129.6 211.3C112.8 226 98.2 241 86.2 256C98.2 271 112.9 286 129.7 300.7C128.6 286.2 128 271.3 128 256C128 240.7 128.6 225.8 129.7 211.3H129.6ZM256 208C268.73 208 280.939 213.057 289.941 222.059C298.943 231.061 304 243.27 304 256C304 268.73 298.943 280.939 289.941 289.941C280.939 298.943 268.73 304 256 304C243.27 304 231.061 298.943 222.059 289.941C213.057 280.939 208 268.73 208 256C208 243.27 213.057 231.061 222.059 222.059C231.061 213.057 243.27 208 256 208ZM288 256C288 247.513 284.629 239.374 278.627 233.373C272.626 227.371 264.487 224 256 224C247.513 224 239.374 227.371 233.373 233.373C227.371 239.374 224 247.513 224 256C224 264.487 227.371 272.626 233.373 278.627C239.374 284.629 247.513 288 256 288C264.487 288 272.626 284.629 278.627 278.627C284.629 272.626 288 264.487 288 256Z" fill="#1F2937"/>
</svg>
